<svg xmlns="http://www.w3.org/2000/svg" width="896" height="1024" viewBox="0 0 896 1024"><path d="M447.94 355.786c-86.212 0-156.154 69.942-156.154 156.214 0 86.184 69.942 156.274 156.154 156.274 86.244 0 155.672-70.092 155.672-156.274 0-86.272-69.428-156.214-155.672-156.214zm313.092 245.952l-28.146 67.8 56.834 111.616-69.61 69.61-114.206-53.94-67.8 27.844-34.414 105.348-4.4 13.982h-98.388L358.324 825.09l-67.8-27.964-111.764 56.592-69.578-69.55 53.88-114.268-27.934-67.742-119.122-38.872V464.96l118.998-42.638 27.936-67.682-50.052-98.808-6.6-12.958 69.488-69.488 114.358 53.85 67.71-27.996 34.382-105.288L396.656 80h98.358l42.61 119.058 67.622 27.996 111.916-56.712 69.55 69.488-53.88 114.178 27.844 67.832 119.33 38.812v98.298l-118.97 42.79z"/></svg>